# xmcd CD database file
#
# Track frame offsets:
#	150
#	11018
#	25234
#	37107
#	48639
#	59384
#	70136
#	78047
#	88826
#	98149
#	109054
#	117876
#	126966
#	136998
#	148117
#	157278
#	167298
#	177506
#	185803
#	195967
#	204960
#	214690
#	226263
#
# Disc length: 3138 seconds
#
# Revision: 2
# Processed by: cddbd v1.5.2PL0 Copyright (c) Steve Scherf et al.
# Submitted via: jetAudio 7
#
DISCID=450c4017
DTITLE=Floyd Cramer - Seven Classic Albums Plus CD4
DYEAR=2014
DGENRE=Instrumental
TTITLE0=Your Last Goodbye
TTITLE1=Unchained Melody
TTITLE2=You Win Again
TTITLE3=Someone Else, Not Me
TTITLE4=Lonely Again
TTITLE5=The Waltz You Saved For Me
TTITLE6=Hang On
TTITLE7=Out On A Limb
TTITLE8=Rejoice
TTITLE9=The Tide And The Sea
TTITLE10=Portuguese Washerwoman
TTITLE11=Are You Sincere
TTITLE12=Five Foot Two, Eyes Of Blue
TTITLE13=Jolly Cholly
TTITLE14=Oh Suzanna
TTITLE15=Rio Grande Valley
TTITLE16=Slap Happy
TTITLE17=Sophisticated Swing
TTITLE18=The Big Chihuahua
TTITLE19=Chattanooga Choo Choo
TTITLE20=Hot Pepper
TTITLE21=For Those That Cry
TTITLE22=Java
EXTD=© Real Gone Music RGMCD118 (2014)
EXTT0=
EXTT1=
EXTT2=
EXTT3=
EXTT4=
EXTT5=
EXTT6=
EXTT7=
EXTT8=
EXTT9=
EXTT10=
EXTT11=
EXTT12=
EXTT13=
EXTT14=
EXTT15=
EXTT16=
EXTT17=
EXTT18=
EXTT19=
EXTT20=
EXTT21=
EXTT22=
PLAYORDER=
